<svg width="153" height="59" viewBox="0 0 153 59" fill="none" xmlns="http://www.w3.org/2000/svg">
<g clip-path="url(#clip0)">
<circle cx="30.5" cy="29.5" r="28.5" fill="#0180B7"/>
<path d="M16.43 19H29.03V21.28H19.19V27.82H27.98V30.1H19.19V37.72H29.03V40H16.43V19ZM31.3327 38.56L40.0027 26.98H31.7527V25H43.0027V26.47L34.4527 38.02H43.3027V40H31.3327V38.56Z" fill="white"/>
<path d="M71.3091 18H84.7791V21.06H75.0891V26.43H83.7591V29.49H75.0891V35.94H84.7791V39H71.3091V18ZM86.772 37.14L95.022 26.58H87.192V24H99.132V25.74L91.002 36.42H99.432V39H86.772V37.14ZM102.305 18H109.025C111.445 18 113.275 18.56 114.515 19.68C115.775 20.78 116.405 22.41 116.405 24.57C116.405 26.87 115.755 28.62 114.455 29.82C113.175 31 111.315 31.59 108.875 31.59H106.085V39H102.305V18ZM109.205 28.53C110.345 28.53 111.215 28.21 111.815 27.57C112.415 26.91 112.715 25.96 112.715 24.72C112.715 23.52 112.395 22.61 111.755 21.99C111.135 21.37 110.215 21.06 108.995 21.06H106.085V28.53H109.205ZM125.764 39.3C124.264 39.3 122.884 38.99 121.624 38.37C120.384 37.75 119.374 36.87 118.594 35.73L120.844 33.57C121.484 34.35 122.264 34.99 123.184 35.49C124.124 35.99 125.024 36.24 125.884 36.24C126.904 36.24 127.714 36 128.314 35.52C128.934 35.04 129.244 34.41 129.244 33.63C129.244 33.07 129.144 32.61 128.944 32.25C128.744 31.87 128.374 31.5 127.834 31.14C127.294 30.76 126.464 30.29 125.344 29.73C123.864 29.01 122.694 28.33 121.834 27.69C120.974 27.05 120.344 26.37 119.944 25.65C119.544 24.93 119.344 24.1 119.344 23.16C119.344 22.08 119.624 21.13 120.184 20.31C120.764 19.47 121.564 18.83 122.584 18.39C123.604 17.93 124.784 17.7 126.124 17.7C127.584 17.7 128.884 17.99 130.024 18.57C131.184 19.15 132.034 19.94 132.574 20.94L130.144 22.74C129.664 22.12 129.084 21.64 128.404 21.3C127.744 20.94 127.034 20.76 126.274 20.76C125.294 20.76 124.524 20.97 123.964 21.39C123.424 21.79 123.154 22.36 123.154 23.1C123.154 23.56 123.274 23.96 123.514 24.3C123.774 24.62 124.224 24.98 124.864 25.38C125.524 25.78 126.524 26.3 127.864 26.94C129.764 27.84 131.094 28.78 131.854 29.76C132.634 30.72 133.024 31.93 133.024 33.39C133.024 34.57 132.724 35.61 132.124 36.51C131.524 37.39 130.674 38.08 129.574 38.58C128.474 39.06 127.204 39.3 125.764 39.3ZM146.244 35.16H138.714L137.544 39H133.554L140.784 18H144.174L151.404 39H147.414L146.244 35.16ZM145.314 32.13L142.494 22.95L139.644 32.13H145.314Z" fill="white"/>
</g>
<defs>
<clipPath id="clip0">
<rect width="1440" height="1024" fill="white" transform="translate(-24 -57)"/>
</clipPath>
</defs>
</svg>
